<?xml version="1.0" encoding="UTF-8" standalone="no"?>
<!-- Created with Inkscape (http://www.inkscape.org/) -->

<svg
   width="1000"
   height="1000"
   viewBox="0 0 264.58333 264.58333"
   version="1.1"
   id="svg1"
   inkscape:version="1.3 (0e150ed, 2023-07-21)"
   sodipodi:docname="logo.svg"
   inkscape:export-filename="logo.png"
   inkscape:export-xdpi="96"
   inkscape:export-ydpi="96"
   xmlns:inkscape="http://www.inkscape.org/namespaces/inkscape"
   xmlns:sodipodi="http://sodipodi.sourceforge.net/DTD/sodipodi-0.dtd"
   xmlns="http://www.w3.org/2000/svg"
   xmlns:svg="http://www.w3.org/2000/svg">
  <sodipodi:namedview
     id="namedview1"
     pagecolor="#ffffff"
     bordercolor="#000000"
     borderopacity="0.25"
     inkscape:showpageshadow="2"
     inkscape:pageopacity="0.0"
     inkscape:pagecheckerboard="0"
     inkscape:deskcolor="#d1d1d1"
     inkscape:document-units="mm"
     inkscape:zoom="0.32617781"
     inkscape:cx="473.66803"
     inkscape:cy="565.6424"
     inkscape:window-width="1392"
     inkscape:window-height="812"
     inkscape:window-x="264"
     inkscape:window-y="135"
     inkscape:window-maximized="0"
     inkscape:current-layer="layer1"
     showgrid="false" />
  <defs
     id="defs1" />
  <g
     inkscape:label="Layer 1"
     inkscape:groupmode="layer"
     id="layer1">
    <g
       id="g13"
       transform="translate(21.695831)">
      <g
         id="g7"
         inkscape:transform-center-x="20.298692"
         inkscape:transform-center-y="-13.978501"
         transform="matrix(1.2964969,0.901341,-0.89963298,1.2989584,89.13702,-155.46334)"
         style="fill:#2dd4bf;fill-opacity:1">
        <rect
           style="display:inline;fill:#2dd4bf;fill-opacity:1;stroke-width:0.128131"
           id="rect1-1"
           width="12.957056"
           height="29.989958"
           x="145.17703"
           y="-123.52296"
           transform="matrix(7.7737521e-4,0.9999997,-0.99999897,0.00143211,0,0)"
           inkscape:transform-center-x="12.05543"
           inkscape:transform-center-y="-0.3373771" />
        <circle
           style="fill:#2dd4bf;fill-opacity:1;stroke-width:0.236377"
           id="path7"
           cx="93.545837"
           cy="151.5"
           r="6.5" />
        <circle
           style="fill:#2dd4bf;fill-opacity:1;stroke-width:0.236377"
           id="path7-9"
           cx="123.86668"
           cy="151.5"
           r="6.5" />
      </g>
      <g
         id="g11"
         inkscape:transform-center-x="-28.381058"
         inkscape:transform-center-y="-15.16707"
         transform="matrix(1.3774375,-0.77146806,0.77000615,1.3800527,-174.86713,41.048784)">
        <rect
           style="display:inline;fill:#7c3aed;fill-opacity:1;stroke-width:0.148063"
           id="rect1-1-6"
           width="12.974802"
           height="39.991131"
           x="144.76175"
           y="-164.83867"
           transform="matrix(6.8425862e-4,0.99999977,-0.9999998,6.3016296e-4,0,0)"
           inkscape:transform-center-x="16.075734"
           inkscape:transform-center-y="-0.33785738" />
        <circle
           style="fill:#7c3aed;fill-opacity:1;stroke-width:0.236377"
           id="path7-91"
           cx="124.90383"
           cy="151.09061"
           r="6.5"
           transform="rotate(0.022649)" />
        <circle
           style="fill:#7c3aed;fill-opacity:1;stroke-width:0.236377"
           id="path7-9-4"
           cx="164.9626"
           cy="151.09253"
           r="6.5"
           transform="rotate(0.022649)" />
      </g>
      <g
         id="g12"
         transform="matrix(1.4728472,0,0,1.4816666,-70.991129,-71.141411)">
        <path
           id="path4"
           style="display:inline;fill:#2563eb;fill-opacity:1;stroke-width:0.28342"
           d="m 120.22122,75.376155 c -39.202439,2.500267 -70.22474,34.949195 -70.224883,74.627225 -1.49e-4,41.30906 33.621284,74.79696 75.095173,74.79679 39.76568,-1.4e-4 72.2918,-30.79221 74.90483,-69.74051 -0.10512,-0.0575 -0.024,-0.38274 -0.0161,-0.53427 -1.1e-4,-4.58994 -3.73597,-8.31069 -8.34421,-8.3105 -6.20814,0.51953 -7.39644,3.53519 -8.37124,8.84477 -2.57464,29.75934 -27.62795,53.11872 -58.17328,53.11894 -32.257427,1e-4 -58.407394,-26.046 -58.407302,-58.17522 -9.6e-5,-31.9003 25.781862,-57.82403 57.722012,-58.158653 z"
           sodipodi:nodetypes="csscccccccc" />
        <path
           id="path10"
           style="opacity:1;fill:#2563eb;fill-opacity:1;stroke-width:0.307976"
           d="m 125.67934,49.800167 a 21.124523,21.040604 0 0 0 -21.12427,21.040355 21.124523,21.040604 0 0 0 21.12427,21.040872 21.124523,21.040604 0 0 0 21.12479,-21.040872 21.124523,21.040604 0 0 0 -21.12479,-21.040355 z m 0,16.030993 a 5.0296483,5.0096675 0 0 1 5.02986,5.009362 5.0296483,5.0096675 0 0 1 -5.02986,5.009879 5.0296483,5.0096675 0 0 1 -5.02935,-5.009879 5.0296483,5.0096675 0 0 1 5.02935,-5.009362 z" />
      </g>
    </g>
  </g>
</svg>
